<svg width="51" height="50" viewBox="0 0 51 50" fill="none" xmlns="http://www.w3.org/2000/svg">
<path d="M44.7935 15.1471C44.5635 15.0287 44.2919 15.0232 44.0577 15.1329L40.8567 16.6212L34.9369 17.9332L30.0315 18.3619L27.6748 18.4925L28.3601 17.2145L28.3602 17.2147C28.8284 17.3039 29.3086 17.3104 29.7791 17.2344C30.0905 17.1815 30.3842 17.0526 30.6342 16.8592C31.0072 16.5576 31.0875 15.8285 31.1016 15.4099L31.623 15.1679L31.6227 15.168C31.7044 15.13 31.7678 15.0612 31.7988 14.9764C31.8298 14.8916 31.8257 14.7981 31.788 14.7163L31.3791 13.8353C31.3354 13.5972 31.1252 12.4748 30.939 11.8487L30.9387 11.8487C30.7118 11.1744 30.203 10.6324 29.5447 10.3637C28.6775 10.048 27.7221 10.0801 26.878 10.4529C26.534 10.0405 26.009 9.82401 25.4745 9.87406C24.9399 9.9241 24.4641 10.2346 24.2032 10.7035C23.942 11.1728 23.9286 11.7406 24.1677 12.2214C24.3639 12.6508 24.7247 12.9833 25.169 13.1439C25.1549 13.3371 25.1632 13.5312 25.1939 13.7226C25.2986 14.4401 25.5381 15.1315 25.8997 15.76L25.5306 16.1928L24.9155 15.7309C24.884 15.685 24.8507 15.6404 24.8146 15.5976L24.8144 15.5979C24.2643 14.9392 23.5271 14.4634 22.7007 14.2326L18.0413 12.927L15.5662 11.684L11.4484 9.81966L11.4366 9.7904L11.4363 9.79045C11.3707 9.62808 11.3602 9.44829 11.4071 9.2794L11.6591 8.38156L11.6592 8.38186C11.7062 8.21511 11.7228 8.04124 11.709 7.86857L11.6493 7.11976C11.6183 6.73058 11.3306 6.41059 10.9471 6.33786C10.5637 6.26544 10.1788 6.45858 10.0079 6.80934L9.2963 8.26974L9.10695 8.1615L9.107 8.16179C8.87263 8.02851 8.57534 8.09998 8.4273 8.32513L7.53434 9.68872C7.38311 9.9182 7.44122 10.2264 7.66582 10.3845L8.11253 10.7004L7.52572 11.9052C6.1529 14.0636 2.97775 19.077 2.87296 19.45C2.80898 19.6781 2.85312 20.0406 3.66428 21.0001C3.85977 21.2317 4.10316 21.4183 4.37746 21.547L13.0529 25.6293C13.3326 26.4523 14.7464 30.558 15.6643 31.9882C16.5988 33.4436 17.0347 37.4133 17.0393 37.4547L17.0936 37.9309L17.0936 37.9312C17.2276 39.1119 17.559 40.2617 18.0738 41.3326L18.1899 41.5761C18.5605 42.3476 18.8302 43.1639 18.9921 44.0047L19.4112 46.1815C19.4719 46.4969 19.6554 46.7752 19.9213 46.9553C20.1873 47.1354 20.5137 47.2023 20.8292 47.1416L25.7008 46.2036C26.0107 46.1415 26.2266 45.8591 26.2049 45.5438C26.1834 45.2283 25.9308 44.9779 25.6155 44.9589L23.5723 44.8801C23.1764 44.8651 22.7926 44.7393 22.4647 44.517L22.3254 44.4226C21.8468 44.0971 21.5212 43.5908 21.4234 43.0206L20.3185 36.5046L18.7872 28.5516C18.6815 28.007 18.7803 27.4429 19.0646 26.9667L20.9267 26.6493L20.9843 26.6382C22.2699 26.3907 24.3543 25.0856 24.601 24.9295C25.9065 24.3359 27.2111 23.6184 27.6833 22.0579C27.6933 22.0585 27.7032 22.06 27.7134 22.0602L27.7134 22.0599C28.8807 22.0908 30.0446 21.9246 31.1565 21.5682L33.6063 20.7849L38.025 19.4147L40.4236 18.6127L41.7477 18.5254L41.7474 18.5251C41.8146 18.5209 41.8786 18.4968 41.9319 18.4559L43.4138 17.3203L44.7817 16.6488L44.7819 16.6485C45.067 16.5086 45.2485 16.2198 45.251 15.902C45.2536 15.5846 45.0765 15.2928 44.7939 15.1481L44.7935 15.1471ZM30.62 14.8832C30.4979 14.9398 30.4209 15.0635 30.4236 15.1981C30.4315 15.6836 30.3263 16.2341 30.2067 16.3307C29.6345 16.794 28.4518 16.5532 28.1035 16.4685L28.1032 16.4685C27.7228 16.3556 27.3604 16.1889 27.0268 15.9736C26.6903 15.7437 26.4304 15.4181 26.2801 15.0392C27.6218 13.3808 29.6882 12.8256 30.4463 12.6722C30.5894 13.2986 30.7148 13.9899 30.7166 13.9992C30.7218 14.0278 30.7305 14.0555 30.7427 14.0819L31.0269 14.6939L30.62 14.8832ZM29.3093 11.0019L29.3096 11.0019C29.7559 11.1917 30.1047 11.5565 30.2747 12.0108C29.4503 12.1773 27.4718 12.7236 26.0181 14.3033C25.9592 14.0874 25.9073 13.8559 25.865 13.6077C25.7173 12.741 26.2516 11.5928 27.0086 11.1499L27.0083 11.1496C27.7191 10.7741 28.5565 10.7201 29.3096 11.0018L29.3093 11.0019ZM24.78 11.9259C24.5486 11.4436 24.7507 10.8651 25.2322 10.6324C25.5939 10.4684 26.0193 10.5467 26.2987 10.8287C25.8162 11.2679 25.4666 11.834 25.2898 12.462C25.0643 12.3459 24.8847 12.1569 24.7802 11.9256L24.78 11.9259ZM26.335 16.2976L26.335 16.2973C26.44 16.3964 26.5557 16.4836 26.6795 16.5578C26.9949 16.754 27.3293 16.9184 27.6774 17.0486L27.2194 17.9024C27.1631 17.801 27.1048 17.7006 27.0417 17.6027C26.8025 17.2369 26.4999 16.9164 26.1481 16.6567L26.0753 16.6014L26.335 16.2976ZM17.7654 13.5496L17.7654 13.5493C17.7848 13.5588 17.8052 13.5667 17.8261 13.5722L22.5163 14.8876C23.211 15.0813 23.8303 15.4812 24.2924 16.0347C24.5024 16.2856 24.5801 16.6215 24.5014 16.9388C24.4228 17.2563 24.1972 17.5171 23.8945 17.6406L23.7179 17.713C23.4202 17.8334 23.0836 17.8082 22.8072 17.645L21.6218 16.9404L16.9678 14.371L11.7245 11.5644C11.829 11.296 11.8516 11.0023 11.7894 10.7208L15.2733 12.2973L17.7654 13.5496ZM18.651 22.8048L18.6513 22.8044C18.9515 23.7005 19.345 24.5625 19.8255 25.3763L20.239 26.0758L18.9931 26.2885C18.69 25.9075 17.8995 24.8399 17.7084 23.8477C17.5803 23.1102 17.5725 22.3566 17.6851 21.6167C17.839 21.5967 18.0273 21.5709 18.2285 21.5415L18.651 22.8048ZM17.4449 20.9616L16.4665 20.5242L16.4662 20.524C15.8698 20.2579 15.2159 20.1472 14.5652 20.2023L12.9403 20.342C12.5188 20.3783 12.0945 20.3299 11.6924 20.1992L7.31843 18.7836C7.61001 18.4127 7.87477 18.0213 8.11117 17.6128C8.77511 16.4748 9.40389 14.3094 9.71934 13.1197L9.7194 13.12C9.80653 12.7937 10.0917 12.5598 10.4285 12.5376C10.7725 12.5159 11.0977 12.3729 11.346 12.1337L16.6429 14.9686L21.2837 17.5319L21.5452 17.6872L20.4642 19.651C20.2396 20.0758 19.8826 20.4154 19.4475 20.6188C19.2809 20.6948 18.2984 20.853 17.4449 20.9617L17.4449 20.9616ZM8.90881 8.83151L9.29784 9.05343L9.23956 9.97928L8.82521 10.3726L8.19278 9.92389L8.90881 8.83151ZM8.10938 12.2546C8.11624 12.2437 8.12275 12.2325 8.12826 12.221L8.68694 11.0758C8.76815 11.1025 8.85493 11.1083 8.93888 11.0931C9.03458 11.0747 9.12292 11.0292 9.19349 10.9621L9.75654 10.4258C9.84924 10.3372 9.90554 10.2169 9.91337 10.0889L9.98236 8.99064L9.98266 8.99058C9.98988 8.86428 9.95022 8.74019 9.8712 8.64131L10.6185 7.10733L10.6185 7.10763C10.6446 7.055 10.6936 7.01742 10.7511 7.00634C10.803 6.99635 10.8565 7.00894 10.8985 7.04104C10.9405 7.07284 10.9671 7.12121 10.9711 7.17394L11.0307 7.92215C11.0381 8.01474 11.0291 8.10799 11.004 8.19754L10.7519 9.09454C10.6643 9.40885 10.6835 9.7434 10.8064 10.0459L11.0873 10.7339C11.1881 10.9782 11.1592 11.2568 11.0109 11.4756L10.9839 11.5154C10.8481 11.7172 10.6262 11.8446 10.3836 11.8598C10.077 11.8795 9.78441 11.9949 9.54709 12.1899C9.30977 12.385 9.13995 12.6496 9.06141 12.9467C8.75501 14.103 8.14712 16.202 7.52342 17.2711C7.44619 17.4031 7.37065 17.5246 7.29598 17.641L7.29627 17.641C6.51544 17.369 5.68047 17.291 4.86302 17.4138C5.83674 15.8436 7.14331 13.773 8.10937 12.2547L8.10938 12.2546ZM21.9446 44.9855L22.0839 45.0798C22.5168 45.3734 23.0237 45.5398 23.5465 45.5601L25.1319 45.6203L20.7006 46.4735C20.5622 46.4998 20.4192 46.4702 20.3027 46.3918C20.1858 46.3132 20.1054 46.1911 20.0791 46.0527L19.66 43.8759C19.4871 42.9782 19.1993 42.1063 18.8034 41.2821L18.6873 41.0386C18.2055 40.0362 17.8956 38.9598 17.77 37.8545L17.719 37.4101L19.7169 37.0255L20.753 43.1339C20.8825 43.8872 21.3124 44.5554 21.9446 44.9853L21.9446 44.9855ZM18.1194 28.68L19.5973 36.356L17.6343 36.734C17.4649 35.5026 17.0243 32.8464 16.2367 31.6209C15.2823 30.1325 13.6675 25.3237 13.6514 25.2755C13.6221 25.1875 13.5581 25.1154 13.4744 25.0755L4.66689 20.9315C4.48066 20.8443 4.31567 20.7181 4.18336 20.5608C3.72812 20.0224 3.5676 19.7218 3.53841 19.6152C3.62247 19.4431 3.93607 18.9184 4.37785 18.1985L4.69232 18.1312L4.69208 18.1315C5.42116 17.9757 6.17757 18.0069 6.89127 18.2226C6.62824 18.5973 6.31079 18.9302 5.94926 19.211L6.13496 19.4962L6.31869 19.7824C6.50321 19.6519 6.6741 19.5037 6.82891 19.3394L11.4823 20.8456C11.9708 21.0045 12.4861 21.0632 12.9977 21.0192L14.6225 20.8795C15.1585 20.8338 15.6975 20.9251 16.1886 21.1441L17.0121 21.5124C16.8868 22.3296 16.8962 23.162 17.0403 23.9762C17.2566 25.0996 18.085 26.2387 18.4384 26.6852C18.099 27.291 17.9856 27.998 18.119 28.6798L18.1194 28.68ZM24.2981 24.3205L24.2981 24.3202C24.2833 24.3267 24.269 24.3344 24.2556 24.3435C24.2341 24.3572 22.1736 25.6645 20.9539 25.9489L20.4109 25.0299L20.4108 25.0296C19.9548 24.2573 19.5811 23.4391 19.2961 22.5882L18.9095 21.4333C18.9795 21.4208 19.0482 21.4085 19.1141 21.3958L19.1144 21.3957C19.3256 21.3622 19.5332 21.3083 19.7339 21.2347C20.3022 20.9695 20.7685 20.5266 21.0626 19.9728L22.1299 18.0345L22.4596 18.2307C22.8199 18.4433 23.2454 18.5173 23.6562 18.4382C23.7653 18.4172 23.8721 18.3855 23.975 18.3434L24.1515 18.2711C24.4472 18.1495 24.7029 17.9472 24.8894 17.6875C25.0759 17.4277 25.186 17.1208 25.2071 16.8017L25.7395 17.2013C26.0266 17.4122 26.2737 17.6729 26.469 17.9711C27.1888 19.0935 27.4051 20.4661 27.0656 21.7552C26.7019 23.1297 25.5489 23.7528 24.298 24.3201L24.2981 24.3205ZM44.4817 16.0364L43.0837 16.723L43.0836 16.7227C43.0636 16.7327 43.0445 16.7445 43.0267 16.7581L41.5997 17.8516L40.3345 17.9354L40.3342 17.9354C40.3051 17.937 40.2765 17.9425 40.2489 17.9518L37.8159 18.7666L33.4014 20.136L30.9489 20.9199C29.9434 21.2411 28.8924 21.3968 27.8373 21.3804C27.9518 20.6438 27.914 19.8914 27.7259 19.1698L30.0791 19.0392L35.0174 18.6079C35.0324 18.6068 35.0471 18.6046 35.0616 18.6012L41.04 17.277C41.0641 17.2717 41.0873 17.2639 41.1097 17.2534L44.3444 15.7497L44.3443 15.7494C44.3886 15.7288 44.4401 15.7297 44.4836 15.7519C44.5272 15.7741 44.5583 15.8155 44.5673 15.8635C44.5812 15.9341 44.546 16.0052 44.4816 16.0371L44.4817 16.0364Z" fill="black"/>
</svg>
