<svg width="51" height="49" viewBox="0 0 51 49" fill="none" xmlns="http://www.w3.org/2000/svg">
<path d="M25.52 1.89056C13.0264 1.89056 2.86133 12.0631 2.86133 24.5665C2.86133 37.0692 13.0264 47.2417 25.52 47.2417C38.0136 47.2417 48.1787 37.0692 48.1787 24.5665C48.1787 12.0631 38.0136 1.89056 25.52 1.89056ZM25.52 45.7945C13.8235 45.7945 4.30746 36.2715 4.30746 24.5665C4.30746 12.8607 13.8235 3.33775 25.52 3.33775C37.2165 3.33775 46.7325 12.8607 46.7325 24.5665C46.7325 36.2715 37.2165 45.7945 25.52 45.7945Z" fill="black"/>
<path d="M24.7964 9.01541H26.2426V12.6747H24.7964V9.01541Z" fill="black"/>
<path d="M37.4014 23.8436H41.0571V25.2909H37.4014V23.8436Z" fill="black"/>
<path d="M24.7964 36.4581H26.2426V40.1171H24.7964V36.4581Z" fill="black"/>
<path d="M9.98145 23.843H13.6371V25.2902H9.98145V23.843Z" fill="black"/>
<path d="M16.6074 16.669L14.022 14.0818L15.0445 13.0585L17.6299 15.6457L16.6074 16.669Z" fill="black"/>
<path d="M34.7062 16.9933L33.7207 15.9343L36.3959 13.4403L37.3814 14.4992L34.7062 16.9933Z" fill="black"/>
<path d="M35.5811 36.4382L33.0889 33.7611L34.147 32.7749L36.6393 35.452L35.5811 36.4382Z" fill="black"/>
<path d="M14.6408 35.6945L13.6553 34.6355L16.3304 32.1415L17.316 33.2004L14.6408 35.6945Z" fill="black"/>
<path d="M28.0212 21.0398L25.5195 23.5439L20.5465 18.5669L19.5239 19.5905L24.4967 24.5669L22.4268 26.6391L23.4493 27.662L25.5196 25.5902L27.7499 27.8221L28.7725 26.7992L26.5421 24.5669L29.0441 22.0635L28.0212 21.0398Z" fill="black"/>
<path d="M25.519 5.54987C15.0405 5.54987 6.51611 14.0809 6.51611 24.5665C6.51611 35.0517 15.0406 43.5832 25.519 43.5832C35.9966 43.5832 44.5219 35.0522 44.5219 24.5665C44.5219 14.0805 35.9966 5.54987 25.519 5.54987ZM25.519 42.136C15.8385 42.136 7.96224 34.254 7.96224 24.5665C7.96224 14.8782 15.8378 6.99705 25.519 6.99705C35.2002 6.99705 43.0757 14.8783 43.0757 24.5665C43.0757 34.254 35.1995 42.136 25.519 42.136Z" fill="black"/>
</svg>
