<svg width="49" height="48" viewBox="0 0 49 48" fill="none" xmlns="http://www.w3.org/2000/svg">
<g clip-path="url(#clip0_3_816)">
<path d="M24.3006 20.616C21.7181 20.616 19.3278 21.4388 17.3637 22.8251C17.267 22.5587 17.2018 22.2805 17.2018 21.9964C17.2018 21.0105 17.7868 20.1223 18.6939 19.734L19.0503 19.5807C20.6689 18.8863 21.9466 17.5589 22.5917 15.9391C23.2079 16.3829 23.5906 17.1027 23.5906 17.8915V19.1962H25.0104V17.8915C25.0104 16.2431 23.9597 14.7851 22.3953 14.264L21.6684 14.0212L21.4823 14.7649C21.0912 16.3281 19.9731 17.6414 18.49 18.2766L18.1337 18.4298C16.7055 19.042 15.7819 20.4426 15.7819 21.9964C15.7819 22.5968 15.924 23.1969 16.1916 23.7313L16.205 23.7589C13.7722 25.969 12.2324 29.1457 12.2324 32.6837C12.2324 39.338 17.6459 44.7518 24.3005 44.7518C30.9548 44.7518 36.3685 39.3383 36.3685 32.6837C36.3685 26.0295 30.9548 20.6157 24.3005 20.6157L24.3006 20.616ZM24.3006 43.3318C18.429 43.3318 13.6521 38.555 13.6521 32.6833C13.6521 26.8116 18.4288 22.0348 24.3006 22.0348C30.1723 22.0348 34.949 26.8116 34.949 32.6833C34.949 38.555 30.1723 43.3318 24.3006 43.3318Z" fill="black"/>
<path d="M23.5903 40.4925H25.0102V41.9123H23.5903V40.4925Z" fill="black"/>
<path d="M28.3157 37.7055L29.3197 36.7015L28.2739 35.6557C28.7608 35.0063 29.0911 34.2353 29.2123 33.3954L30.6889 33.3957V31.9759H29.2123C29.0917 31.1361 28.7608 30.3651 28.2739 29.7156L29.3197 28.6698L28.3157 27.6659L27.2699 28.7117C26.6205 28.2248 25.8495 27.8945 25.0096 27.7732V26.2966H23.5898V27.7732C22.7499 27.8939 21.9789 28.2248 21.3295 28.7117L20.2837 27.6659L19.2797 28.6698L20.3255 29.7156C19.8386 30.3651 19.5083 31.1361 19.3871 31.9759H17.9111V33.3957H19.3877C19.5084 34.2356 19.8393 35.0066 20.3262 35.656L19.2804 36.7018L20.2843 37.7058L21.3301 36.66C21.9796 37.1469 22.7506 37.4772 23.5904 37.5985V39.075H25.0102V37.5985C25.8501 37.4778 26.6211 37.1469 27.2705 36.66L28.3157 37.7055ZM24.3001 36.2354C22.3428 36.2354 20.7505 34.6431 20.7505 32.6859C20.7505 30.7286 22.3428 29.1364 24.3001 29.1364C26.2573 29.1364 27.8496 30.7286 27.8496 32.6859C27.8496 34.6431 26.2573 36.2354 24.3001 36.2354Z" fill="black"/>
<path d="M29.3174 38.7107L30.3213 37.7067L31.3253 38.7107L30.3213 39.7146L29.3174 38.7107Z" fill="black"/>
<path d="M32.1094 31.9731H33.5292V33.3929H32.1094V31.9731Z" fill="black"/>
<path d="M29.3198 26.6619L30.3238 25.658L31.3277 26.6619L30.3238 27.6659L29.3198 26.6619Z" fill="black"/>
<path d="M23.5903 23.4568H25.0102V24.8766H23.5903V23.4568Z" fill="black"/>
<path d="M17.2734 26.6604L18.2774 25.6565L19.2813 26.6604L18.2774 27.6644L17.2734 26.6604Z" fill="black"/>
<path d="M15.0728 31.9747H16.4926V33.3945H15.0728V31.9747Z" fill="black"/>
<path d="M17.2729 38.7076L18.2769 37.7036L19.2809 38.7076L18.2769 39.7115L17.2729 38.7076Z" fill="black"/>
<path d="M44.5102 27.641L44.2922 27.3144C42.8243 25.1137 42.0483 22.551 42.0483 19.9056V18.9203L41.1141 19.232C39.561 19.7496 38.3024 20.8413 37.5705 22.3051L37.1546 23.1372L38.4246 23.7727L38.8405 22.9406C39.2542 22.1128 39.8876 21.4404 40.6679 20.9842C40.8524 23.5265 41.6879 25.9684 43.1111 28.1022L43.3291 28.4287C44.3482 29.9595 44.8879 31.7397 44.8879 33.5785C44.8879 37.4227 42.4821 40.9301 38.9022 42.3072L36.1138 43.3791L36.6243 44.7043L39.4121 43.6324C43.5362 42.0452 46.3077 38.005 46.3077 33.5786C46.3077 31.4588 45.6859 29.4066 44.5101 27.6411L44.5102 27.641Z" fill="black"/>
<path d="M41.8356 28.7466C41.5459 28.3015 41.2783 27.8444 41.0398 27.3857L39.7812 28.0416C40.0402 28.54 40.3314 29.0368 40.6453 29.5203L41.8356 28.7466Z" fill="black"/>
<path d="M40.6874 39.611C42.4549 38.0947 43.4687 35.9011 43.4687 33.594C43.4687 32.4298 43.2196 31.3055 42.729 30.2532L41.4419 30.8537C41.8451 31.7171 42.0489 32.6385 42.0489 33.5941C42.0489 35.4865 41.2155 37.2869 39.7622 38.5333L40.6874 39.611Z" fill="black"/>
<path d="M3.71385 33.58C3.71385 31.7415 4.25349 29.961 5.27261 28.4305L5.49064 28.1039C6.91483 25.9692 7.75031 23.5281 7.93387 20.986C8.71479 21.4425 9.34718 22.1146 9.76123 22.9424L10.1771 23.7744L11.4471 23.139L11.0312 22.3069C10.2993 20.8425 9.04079 19.7513 7.48759 19.2338L6.55342 18.9218V19.907C6.55342 22.5534 5.77746 25.1155 4.30956 27.3168L4.09153 27.6434C2.91577 29.4081 2.29395 31.4603 2.29395 33.58C2.29395 38.0069 5.06531 42.0475 9.19045 43.6338L11.9774 44.7057L12.4879 43.3805L9.70006 42.3087C6.1195 40.9313 3.71382 37.4237 3.71382 33.5799L3.71385 33.58Z" fill="black"/>
<path d="M8.82095 28.0431L7.56238 27.3872C7.32388 27.8459 7.05624 28.303 6.7666 28.7481L7.95785 29.5219C8.27078 29.0384 8.562 28.5415 8.82095 28.0431V28.0431Z" fill="black"/>
<path d="M5.13386 33.5937C5.13386 35.9009 6.14774 38.0945 7.91515 39.6107L8.83995 38.533C7.38694 37.2866 6.5536 35.4862 6.5536 33.5937C6.5536 32.6382 6.75736 31.7162 7.15992 30.8537L5.87285 30.2532C5.38283 31.3049 5.13379 32.4295 5.13379 33.5937L5.13386 33.5937Z" fill="black"/>
<path d="M29.9425 13.1999L29.6485 12.3182L28.8753 12.8343C27.3445 13.8552 26.4302 15.5641 26.4302 17.4032V17.7751H27.85V17.4032C27.85 16.3304 28.2687 15.3182 28.9994 14.5673C29.6178 15.6832 30.613 16.5485 31.834 17.005L33.3702 17.5784C34.3143 17.9314 34.9488 18.8457 34.9488 19.8964C34.9488 20.5694 34.6889 21.2005 34.2156 21.6725L33.7371 22.1511L34.741 23.155L35.2187 22.6774C35.9605 21.9374 36.3686 20.9499 36.3686 19.8545C36.3686 18.2567 35.3635 16.8077 33.867 16.2492L32.3315 15.6757C31.1971 15.2508 30.3258 14.3493 29.9425 13.1999L29.9425 13.1999Z" fill="black"/>
<path d="M12.6549 21.5154L13.2584 21.9174L14.0455 20.7361L13.442 20.3341C12.6849 19.8289 12.2319 18.9841 12.2319 18.0726C12.2319 17.2216 12.6378 16.4078 13.3173 15.8982L13.4913 15.7683C14.2409 15.2054 14.8373 14.4834 15.2455 13.6528C15.5969 14.2591 15.7814 14.9433 15.7814 15.6483L17.2012 15.6483C17.2012 14.5786 16.8883 13.5427 16.2947 12.6532L14.8578 10.498L14.2003 12.4659C13.9113 13.3348 13.3719 14.0829 12.6415 14.6318L12.4676 14.7618C11.4311 15.539 10.812 16.7768 10.812 18.0725C10.812 19.4594 11.5014 20.7465 12.6549 21.5153L12.6549 21.5154Z" fill="black"/>
<path d="M19.9076 12.5379L19.0786 12.854L19.5848 14.1807L20.4132 13.8647C21.4645 13.4649 22.1707 12.439 22.1707 11.3138C22.1707 10.6557 21.9037 10.0124 21.3935 9.50511C20.9854 9.09759 20.7509 8.53411 20.7509 7.92555C20.7509 7.47771 20.883 7.04386 21.1308 6.67102L21.4041 6.2635C21.9053 5.51205 22.1707 4.63686 22.1707 3.70611C22.1707 3.16802 22.0755 2.6284 21.8932 2.12098C22.6946 2.30769 23.3576 2.89694 23.6268 3.70269L24.9728 3.2533C24.4518 1.6893 22.9929 0.638184 21.3454 0.638184L19.6018 0.638184L20.4054 2.24467C20.6318 2.69653 20.7509 3.20209 20.7509 3.73301C20.7509 4.35545 20.5685 4.95839 20.2233 5.47502L19.9501 5.88253C19.5457 6.48947 19.3314 7.1966 19.3314 7.95832C19.3314 8.90892 19.7175 9.83872 20.4361 10.5551C20.6361 10.7536 20.7509 11.0312 20.7509 11.3137C20.7509 11.854 20.4116 12.3452 19.9076 12.5378L19.9076 12.5379Z" fill="black"/>
<path d="M28.211 2.60724C28.612 3.6046 29.2751 4.46778 30.1432 5.1197L30.3128 5.24685C30.9945 5.75703 31.4005 6.57053 31.4005 7.42189C31.4005 8.33334 30.9477 9.17882 30.19 9.68433L29.5865 10.0863L30.3736 11.2676L30.9771 10.8656C32.1312 10.0959 32.8203 8.80884 32.8203 7.42189C32.8203 6.12647 32.2013 4.88839 31.1636 4.1096L30.9939 3.98244C30.2614 3.43287 29.7218 2.68417 29.4321 1.81519L28.9231 0.289612L27.5678 1.30627C25.9672 2.50585 25.0117 4.41633 25.0117 6.41733H26.4315C26.4315 4.95011 27.0924 3.54513 28.2111 2.60732L28.211 2.60724Z" fill="black"/>
<path d="M35.8392 11.3612L38.7207 13.1615C39.4703 13.6305 39.9181 14.4384 39.9181 15.3229C39.9181 16.1771 39.4935 16.9691 38.783 17.4427L38.1044 17.8955L38.8916 19.0768L39.5701 18.624C40.677 17.8871 41.338 16.6534 41.338 15.3229C41.338 13.9465 40.6408 12.688 39.4731 11.9579L36.591 10.1569C36.0076 9.79219 35.6591 9.16321 35.6591 8.47414C35.6591 8.16679 35.7313 7.86006 35.8684 7.58618L36.2942 6.73578L35.0242 6.10031L34.5984 6.95071C34.3636 7.42119 34.2393 7.94807 34.2393 8.47415C34.2393 9.6561 34.8378 10.7356 35.8392 11.3612L35.8392 11.3612Z" fill="black"/>
<path d="M16.0605 6.99124C16.3381 7.26943 16.4916 7.64005 16.4916 8.0333C16.4916 8.26032 16.4377 8.4889 16.3362 8.69204L15.8565 9.65097L17.1265 10.2864L17.6063 9.32655C17.8057 8.92678 17.9114 8.48052 17.9114 8.03392C17.9114 7.26075 17.6103 6.5347 17.0644 5.98791L16.7853 5.70879C16.5958 5.51899 16.4916 5.26746 16.4916 4.99919C16.4916 4.73092 16.5958 4.47971 16.7856 4.28929L17.7036 3.37132L16.6996 2.36737L15.7817 3.28565C15.3239 3.74342 15.0718 4.35193 15.0718 4.99916C15.0718 5.64672 15.3239 6.25551 15.7817 6.71267L16.0605 6.99124Z" fill="black"/>
</g>
<defs>
<clipPath id="clip0_3_816">
<rect width="48.3495" height="46.8318" fill="white" transform="translate(0.416992 0.286804)"/>
</clipPath>
</defs>
</svg>
