<svg width="50" height="37" viewBox="0 0 50 37" fill="none" xmlns="http://www.w3.org/2000/svg">
<path d="M46.1226 4.07454H45.314C45.3129 3.21689 44.9722 2.39494 44.3657 1.78856C43.7593 1.18218 42.9374 0.84138 42.0797 0.840271H41.2712C40.4135 0.841354 39.5916 1.18211 38.9852 1.78856C38.3788 2.39501 38.038 3.21691 38.0369 4.07454V9.73452H34.4601C34.1785 9.1021 33.7396 8.55271 33.1855 8.13799V5.28739C33.1844 4.53694 32.8862 3.81793 32.3556 3.28723C31.825 2.7566 31.106 2.45844 30.3555 2.45736C29.8793 2.46061 29.4119 2.5855 28.9979 2.82013C28.7597 2.05019 28.2023 1.41997 27.4677 1.0886C26.7331 0.757594 25.8921 0.757594 25.1575 1.0886C24.4229 1.41996 23.8657 2.05019 23.6273 2.82013C23.2133 2.5855 22.7458 2.46061 22.2698 2.45736C21.6698 2.45953 21.0865 2.65265 20.6036 3.00855C20.121 3.36447 19.764 3.86477 19.5846 4.43727C19.1706 4.20264 18.7031 4.07775 18.227 4.0745C17.4766 4.07558 16.7576 4.37374 16.2269 4.90436C15.6962 5.43499 15.3981 6.15399 15.397 6.90453V9.73452H12.1627V4.07454C12.1616 3.21689 11.8209 2.39494 11.2144 1.78856C10.608 1.18218 9.78609 0.84138 8.92845 0.840271H8.11988C7.26223 0.841354 6.44028 1.18211 5.8339 1.78856C5.22752 2.39501 4.88672 3.21691 4.88561 4.07454H4.07704C3.21939 4.07562 2.39744 4.41638 1.79106 5.02283C1.18468 5.62928 0.843882 6.45118 0.842773 7.30881V18.6288C0.843495 19.4864 1.18461 20.3084 1.79106 20.9147C2.39752 21.5211 3.21941 21.8623 4.07704 21.863H4.88561C4.88633 22.7207 5.22745 23.5426 5.8339 24.149C6.44035 24.7554 7.26225 25.0966 8.11988 25.0973H8.92845C9.78611 25.0966 10.6081 24.7555 11.2144 24.149C11.8208 23.5426 12.162 22.7207 12.1627 21.863V16.2031H15.397V17.8202C15.397 21.9507 17.0672 23.9657 17.8227 24.6671V35.6091C17.8227 36.0556 18.1847 36.4176 18.6313 36.4176C19.0778 36.4176 19.4398 36.0556 19.4398 35.6091V24.2891C19.4369 24.0231 19.3059 23.7744 19.0875 23.622C19.0031 23.5617 17.0141 22.1175 17.0141 17.8206V16.2034H26.4277C25.4975 17.3387 25.0239 18.7804 25.1 20.2463C25.1 20.6928 25.4621 21.0549 25.9086 21.0549C26.3551 21.0549 26.7172 20.6928 26.7172 20.2463C26.7172 16.3583 29.6255 16.2078 29.9514 16.2034C30.1659 16.2034 30.3716 16.1183 30.5232 15.9667C30.6748 15.815 30.76 15.6093 30.76 15.3949V12.1606C30.76 11.9462 30.6748 11.7404 30.5232 11.5888C30.3716 11.4372 30.1659 11.352 29.9514 11.352H27.5257C26.8825 11.3513 26.2659 11.0954 25.8111 10.6409C25.3567 10.1861 25.1007 9.56956 25.1 8.92631H30.76C31.4032 8.92703 32.0198 9.18295 32.4746 9.63741C32.9291 10.0922 33.185 10.7088 33.1857 11.352V17.8206C33.1857 22.1175 31.1968 23.5618 31.1199 23.6163C30.8951 23.7665 30.7601 24.0188 30.7601 24.2891V35.6091C30.7601 36.0556 31.1221 36.4177 31.5686 36.4177C32.0151 36.4177 32.3772 36.0556 32.3772 35.6091V24.6671C33.1327 23.9661 34.8029 21.9508 34.8029 17.8202V16.2031H38.0372V21.8631C38.0379 22.7207 38.379 23.5427 38.9855 24.1491C39.5919 24.7554 40.4138 25.0966 41.2714 25.0973H42.08C42.9377 25.0966 43.7596 24.7555 44.366 24.1491C44.9724 23.5426 45.3135 22.7207 45.3143 21.8631H46.1228C46.9805 21.8623 47.8024 21.5212 48.4088 20.9148C49.0152 20.3083 49.3564 19.4864 49.3571 18.6288V7.30885C49.356 6.45119 49.0153 5.62925 48.4088 5.02287C47.8024 4.41649 46.9805 4.07569 46.1228 4.07458L46.1226 4.07454ZM4.88561 20.2459H4.07704C3.64822 20.2452 3.23744 20.0748 2.93424 19.7716C2.63104 19.4684 2.46065 19.0576 2.45993 18.6288V7.30883C2.46029 6.88 2.63103 6.46922 2.93424 6.16602C3.23745 5.86283 3.64824 5.69207 4.07704 5.69171H4.88561V20.2459ZM10.5456 21.863C10.5449 22.2919 10.3745 22.7026 10.0713 23.0058C9.76807 23.309 9.35728 23.4794 8.92847 23.4801H8.1199C7.69107 23.4794 7.28029 23.309 6.97709 23.0058C6.6739 22.7026 6.5035 22.2918 6.50278 21.863V4.07454C6.50315 3.64571 6.67389 3.23493 6.97709 2.93174C7.2803 2.62854 7.69109 2.45779 8.1199 2.45742H8.92847C9.3573 2.45779 9.76808 2.62853 10.0713 2.93174C10.3745 3.23494 10.5452 3.64573 10.5456 4.07454V21.863ZM21.057 5.28693C21.057 4.61697 21.5999 4.07408 22.2698 4.07408C22.9398 4.07408 23.4827 4.61697 23.4827 5.28693V10.1383C23.4827 10.8083 22.9398 11.3512 22.2698 11.3512C21.5999 11.3512 21.057 10.8083 21.057 10.1383V5.28693ZM17.0141 6.90407C17.0141 6.23411 17.557 5.69121 18.227 5.69121C18.8969 5.69121 19.4398 6.23411 19.4398 6.90407V10.1383C19.4398 10.8083 18.8969 11.3512 18.227 11.3512C17.557 11.3512 17.0141 10.8083 17.0141 10.1383V6.90407ZM27.5255 12.9683H29.1426V14.5855H12.1627V11.3512H15.6807C16.0741 12.1879 16.8532 12.7781 17.7649 12.9301C18.6767 13.082 19.6051 12.7767 20.2484 12.1125C20.8415 12.7229 21.6782 13.0333 22.5258 12.9568C23.3733 12.8806 24.1414 12.4258 24.6158 11.7193C25.3742 12.5156 26.4257 12.9672 27.5255 12.9683ZM27.5255 7.30835H25.0998V3.6698C25.0998 2.99984 25.6427 2.45694 26.3127 2.45694C26.9826 2.45694 27.5255 2.99984 27.5255 3.6698V7.30835ZM31.5683 7.38993C31.3023 7.33578 31.0312 7.30835 30.7598 7.30835H29.1426V5.28693C29.1426 4.61697 29.6855 4.07408 30.3555 4.07408C31.0255 4.07408 31.5683 4.61697 31.5683 5.28693V7.38993ZM38.0369 14.5854H34.8026V11.3512H38.0369V14.5854ZM43.6969 21.8626C43.6961 22.2914 43.5258 22.7022 43.2226 23.0054C42.9193 23.3086 42.5086 23.4789 42.0797 23.4797H41.2712C40.8423 23.4789 40.4316 23.3086 40.1284 23.0054C39.8252 22.7022 39.6548 22.2914 39.6541 21.8626V4.07406C39.6544 3.64524 39.8252 3.23445 40.1284 2.93126C40.4316 2.62806 40.8424 2.45731 41.2712 2.45695H42.0797C42.5086 2.45731 42.9194 2.62805 43.2226 2.93126C43.5258 3.23446 43.6965 3.64525 43.6969 4.07406V21.8626ZM47.7397 18.6283C47.739 19.0571 47.5686 19.4679 47.2654 19.7711C46.9622 20.0743 46.5514 20.2447 46.1226 20.2454H45.314V5.69118H46.1226C46.5514 5.69154 46.9622 5.86228 47.2654 6.16549C47.5686 6.4687 47.7393 6.87949 47.7397 7.3083V18.6283Z" fill="black" fill-opacity="0.85"/>
</svg>
